<svg width="52" height="51" viewBox="0 0 52 51" fill="none" xmlns="http://www.w3.org/2000/svg">
<path d="M0.58336 7.65944C0.577022 6.25609 0.958097 4.87821 1.68462 3.67755C2.41114 2.47688 3.45492 1.50001 4.70101 0.854502C5.94711 0.208997 7.34717 -0.0800959 8.74703 0.0190594C10.1469 0.118215 11.4922 0.601772 12.6349 1.41648C13.7776 2.23118 14.6732 3.34543 15.2232 4.63652C15.7733 5.92761 15.9563 7.34544 15.7522 8.73389C15.5481 10.1223 14.9648 11.4275 14.0665 12.5057C13.1683 13.5839 11.9898 14.3933 10.6611 14.8447C10.7048 14.9881 10.7346 15.1353 10.75 15.2844V27.9928C10.75 28.6669 10.4822 29.3133 10.0056 29.79C9.52893 30.2667 8.88245 30.5344 8.20836 30.5344C7.53427 30.5344 6.88779 30.2667 6.41113 29.79C5.93448 29.3133 5.66669 28.6669 5.66669 27.9928V15.2844C5.68211 15.1353 5.7119 14.9881 5.75565 14.8447C4.25071 14.3379 2.94242 13.3722 2.01467 12.0834C1.08693 10.7946 0.586372 9.24744 0.58336 7.65944ZM46.2444 36.0575C46.2882 35.9141 46.3179 35.7669 46.3334 35.6178V25.4511C46.3334 24.777 46.0656 24.1305 45.5889 23.6539C45.1123 23.1772 44.4658 22.9094 43.7917 22.9094C43.1176 22.9094 42.4711 23.1772 41.9945 23.6539C41.5178 24.1305 41.25 24.777 41.25 25.4511V35.6178C41.2654 35.7669 41.2952 35.9141 41.339 36.0575C39.6282 36.6387 38.1794 37.8085 37.2508 39.3584C36.3222 40.9083 35.9742 42.7376 36.2687 44.5202C36.5632 46.3028 37.4812 47.923 38.859 49.0918C40.2368 50.2606 41.9849 50.9022 43.7917 50.9022C45.5985 50.9022 47.3466 50.2606 48.7244 49.0918C50.1022 47.923 51.0202 46.3028 51.3147 44.5202C51.6092 42.7376 51.2612 40.9083 50.3326 39.3584C49.404 37.8085 47.9552 36.6387 46.2444 36.0575ZM48.875 0.0344386H38.7084C38.0343 0.0344386 37.3878 0.30222 36.9111 0.778875C36.4345 1.25553 36.1667 1.90201 36.1667 2.5761V5.11777H26C25.3259 5.11777 24.6795 5.38555 24.2028 5.86221C23.7261 6.33886 23.4584 6.98535 23.4584 7.65944C23.4584 8.33353 23.7261 8.98001 24.2028 9.45667C24.6795 9.93332 25.3259 10.2011 26 10.2011H36.1667V12.7428C36.1667 13.4169 36.4345 14.0633 36.9111 14.54C37.3878 15.0167 38.0343 15.2844 38.7084 15.2844H48.875C49.5491 15.2844 50.1956 15.0167 50.6723 14.54C51.1489 14.0633 51.4167 13.4169 51.4167 12.7428V2.5761C51.4167 1.90201 51.1489 1.25553 50.6723 0.778875C50.1956 0.30222 49.5491 0.0344386 48.875 0.0344386ZM26 40.7011H15.8334V38.1594C15.8334 37.4853 15.5656 36.8389 15.0889 36.3622C14.6123 35.8855 13.9658 35.6178 13.2917 35.6178H3.12503C2.45094 35.6178 1.80445 35.8855 1.3278 36.3622C0.851142 36.8389 0.58336 37.4853 0.58336 38.1594V48.3261C0.58336 49.0002 0.851142 49.6467 1.3278 50.1233C1.80445 50.6 2.45094 50.8678 3.12503 50.8678H13.2917C13.9658 50.8678 14.6123 50.6 15.0889 50.1233C15.5656 49.6467 15.8334 49.0002 15.8334 48.3261V45.7844H26C26.6741 45.7844 27.3206 45.5167 27.7973 45.04C28.2739 44.5633 28.5417 43.9169 28.5417 43.2428C28.5417 42.5687 28.2739 41.9222 27.7973 41.4455C27.3206 40.9689 26.6741 40.7011 26 40.7011Z" fill="#81C177"/>
<path d="M25.6446 38.0027H18.5833V13H32.6633V18.44L25.6446 18.0133V23.816H31.4046V29.1067L25.6446 28.68V38.0027Z" fill="#81C177"/>
</svg>
